<?xml version="1.0" standalone="no"?>
<!DOCTYPE svg PUBLIC "-//W3C//DTD SVG 20010904//EN"
 "http://www.w3.org/TR/2001/REC-SVG-20010904/DTD/svg10.dtd">
<svg version="1.0" xmlns="http://www.w3.org/2000/svg"
 width="260.000000pt" height="260.000000pt" viewBox="0 0 260.000000 260.000000"
 preserveAspectRatio="xMidYMid meet">
<metadata>
Created by potrace 1.11, written by Peter Selinger 2001-2013
</metadata>
<g transform="translate(0.000000,260.000000) scale(0.100000,-0.100000)"
fill="#000000" stroke="none">
<path d="M492 1300 l3 -1014 123 -1 c74 0 122 4 123 10 0 6 1 214 1 463 l1
452 557 0 557 0 1 -447 c0 -247 1 -455 1 -463 1 -13 20 -15 124 -15 l122 1 0
1015 0 1014 -124 0 -124 0 0 -438 c0 -436 0 -437 -21 -438 -27 -1 -1067 -1
-1082 0 -8 1 -11 120 -12 424 0 232 -1 429 -1 437 -1 12 -22 15 -126 15 l-125
0 2 -1015z"/>
</g>
</svg>
